<svg id="Capa_1" enable-background="new 0 0 511.982 511.982" height="512" viewBox="0 0 511.982 511.982" width="512" xmlns="http://www.w3.org/2000/svg"><g><g clip-rule="evenodd" fill="#9b98e7" fill-rule="evenodd"><path d="m186.293 167.326 87.522-70.615c4.524-3.547 4.627-10.257.113-13.904l-87.23-70.379c-5.882-5.328-15.733-1.38-15.733 6.579v27.57c-62.522 0-137.127 54.253-159.897 139.23-6.406 20.927 17.083 35.449 35.448 17.084s64.825-70.042 124.449-70.042v27.57c-.004 7.507 9.204 11.854 15.328 6.907z"/><path d="m167.327 325.689-70.615-87.522c-3.547-4.524-10.257-4.627-13.904-.113l-70.379 87.23c-5.328 5.882-1.38 15.733 6.579 15.733h27.57c0 62.522 54.253 137.127 139.23 159.897 20.927 6.406 35.449-17.083 17.084-35.448s-70.042-64.825-70.042-124.45h27.57c7.506.005 11.854-9.203 6.907-15.327z"/><path d="m325.689 344.656-87.522 70.615c-4.524 3.547-4.627 10.257-.113 13.904l87.23 70.379c5.882 5.328 15.733 1.38 15.733-6.579v-27.57c62.522 0 137.127-54.253 159.897-139.23 6.406-20.927-17.083-35.449-35.448-17.084s-64.825 70.042-124.449 70.042v-27.57c.004-7.506-9.204-11.854-15.328-6.907z"/><path d="m344.656 186.293 70.615 87.522c3.547 4.525 10.258 4.627 13.904.113l70.379-87.23c5.328-5.882 1.38-15.733-6.579-15.733h-27.57c0-62.522-54.253-137.127-139.23-159.897-20.927-6.406-35.449 17.083-17.084 35.448s70.042 64.825 70.042 124.449h-27.57c-7.506-.005-11.854 9.204-6.907 15.328z"/></g><g><path d="m13.582 217.218c4.605 2.768 9.658 4.119 14.801 4.119 8.735-.001 17.729-3.899 25.204-11.374 1.262-1.262 2.655-2.679 4.174-4.225 18.746-19.072 56.418-57.404 103.205-62.356v17.033c-.004 7.319 4.177 13.865 10.912 17.084 6.874 3.285 14.805 2.369 20.696-2.39l87.477-70.579c4.542-3.592 7.17-8.941 7.212-14.688.042-5.761-2.527-11.16-7.054-14.816l-87.049-70.234c-5.694-4.979-13.833-6.198-20.833-3.094-7.008 3.108-11.362 9.74-11.362 17.309v17.986c-19.666 1.617-40.156 7.927-59.843 18.491-4.867 2.611-6.695 8.673-4.083 13.54 2.611 4.867 8.673 6.696 13.54 4.083 20.154-10.814 41.036-16.53 60.387-16.53 5.523 0 10-4.477 10-10v-25.925l85.597 69.062-85.597 69.062v-25.926c0-5.523-4.477-10-10-10-59.779 0-105.498 46.515-127.468 68.869-1.475 1.5-2.827 2.876-4.053 4.102-6.265 6.267-12.145 6.309-15.559 4.256-3.558-2.138-4.775-6.378-3.256-11.342.035-.112.067-.225.097-.338 5.615-20.955 14.715-40.629 27.047-58.479 3.139-4.543 2-10.772-2.543-13.912-4.543-3.139-10.772-2.001-13.912 2.543-13.607 19.694-23.655 41.398-29.869 64.513-4.089 13.62.771 27.328 12.132 34.156z"/><path d="m205.738 454.222c-19.072-18.745-57.404-56.418-62.356-103.205h17.032.011c7.313 0 13.855-4.18 17.073-10.911 3.286-6.874 2.369-14.806-2.389-20.697l-70.579-87.477c-3.592-4.542-8.941-7.169-14.688-7.211-.046 0-.093 0-.139 0-5.708 0-11.05 2.564-14.677 7.054l-70.232 87.047c-4.98 5.693-6.2 13.832-3.095 20.833 3.108 7.009 9.74 11.362 17.309 11.362h17.993c2.562 30.709 16.679 63.424 39.613 91.22 27.132 32.884 64.931 57.133 106.447 68.294 3.216.966 6.438 1.433 9.572 1.433 10.139 0 19.37-4.885 24.586-13.563 7.469-12.426 4.621-28.128-7.255-40.005-1.263-1.262-2.68-2.655-4.226-4.174zm-5.661 33.875c-2.139 3.558-6.378 4.776-11.341 3.255-.112-.035-.226-.067-.339-.097-82.512-22.109-131.818-93.75-131.818-150.238 0-5.523-4.477-10-10-10h-25.927l69.062-85.597 69.062 85.597h-25.926c-5.523 0-10 4.477-10 10 0 59.78 46.515 105.498 68.869 127.468 1.5 1.475 2.876 2.827 4.102 4.053 6.266 6.267 6.307 12.146 4.256 15.559z"/><path d="m498.401 294.764c-12.427-7.469-28.13-4.621-40.005 7.255-1.263 1.263-2.655 2.68-4.175 4.226-18.746 19.072-56.418 57.403-103.204 62.355v-17.033c.004-7.319-4.178-13.865-10.912-17.084-6.871-3.284-14.805-2.368-20.695 2.39l-87.477 70.579c-4.542 3.592-7.169 8.941-7.211 14.688-.042 5.761 2.527 11.161 7.054 14.817l87.048 70.232c3.6 3.147 8.176 4.792 12.824 4.792 2.704 0 5.434-.557 8.009-1.699 7.008-3.107 11.361-9.74 11.361-17.309v-17.992c30.709-2.562 63.425-16.679 91.221-39.613 32.884-27.132 57.133-64.931 68.294-106.448 4.089-13.619-.772-27.327-12.132-34.156zm-7.049 28.483c-.034.112-.066.226-.097.339-22.109 82.512-93.75 131.818-150.238 131.818-5.522 0-10 4.477-10 10v25.926l-85.597-69.062 85.597-69.062v25.926c0 5.523 4.478 10 10 10 59.778 0 105.497-46.514 127.468-68.868 1.475-1.501 2.828-2.877 4.054-4.104 6.266-6.266 12.145-6.307 15.559-4.255 3.557 2.139 4.774 6.379 3.254 11.342z"/><path d="m306.243 57.759c19.073 18.746 57.405 56.418 62.358 103.205h-17.034c-.003 0-.006 0-.01 0-7.314 0-13.856 4.181-17.074 10.912-3.285 6.873-2.368 14.805 2.39 20.695l70.58 87.478c3.591 4.542 8.939 7.169 14.687 7.211h.14c5.709 0 11.051-2.564 14.679-7.054l70.231-87.048c4.979-5.694 6.198-13.833 3.094-20.833-3.107-7.008-9.74-11.362-17.309-11.362h-17.991c-2.562-30.709-16.68-63.424-39.613-91.22-27.133-32.883-64.933-57.132-106.45-68.293-13.618-4.09-27.327.771-34.156 12.13-7.469 12.426-4.621 28.129 7.255 40.006 1.261 1.262 2.678 2.655 4.223 4.173zm5.663-33.874c2.14-3.559 6.382-4.775 11.342-3.256.112.035.225.067.339.097 82.512 22.109 131.818 93.75 131.818 150.238 0 5.523 4.478 10 10 10h25.925l-69.062 85.598-69.062-85.598h25.927c5.522 0 10-4.477 10-10 0-59.78-46.516-105.498-68.87-127.469-1.5-1.475-2.876-2.827-4.101-4.051-6.267-6.267-6.308-12.147-4.256-15.559z"/><path d="m69.157 100.348c5.523 0 10-4.477 10-10s-4.477-10-10-10h-.007c-5.523 0-9.996 4.477-9.996 10s4.48 10 10.003 10z"/></g></g></svg>